<?xml version="1.0" encoding="UTF-8"?>
<svg width="269px" height="345px" viewBox="0 0 269 345" version="1.1" xmlns="http://www.w3.org/2000/svg" xmlns:xlink="http://www.w3.org/1999/xlink">
    <!-- Generator: Sketch 61.2 (89653) - https://sketch.com -->
    <title>Group</title>
    <desc>Created with Sketch.</desc>
    <g id="Scratchpad" stroke="none" stroke-width="1" fill="none" fill-rule="evenodd">
        <g id="Artboard" transform="translate(-270.000000, -242.000000)">
            <g id="Group" transform="translate(404.500000, 414.500000) rotate(-360.000000) translate(-404.500000, -414.500000) translate(270.000000, 242.000000)">
                <path d="M215,1.59161573e-12 C230.355353,1.57844928e-12 243.016212,11.5365021 244.788002,26.4149321 L48.1666667,26.4157303 C41.5392497,26.4157303 36.1666667,31.7883133 36.1666667,38.4157303 L36.1666667,38.4157303 L36.166,104 L0,104 L0,33 C-2.23196738e-15,14.7746033 14.7746033,1.59496368e-12 33,1.59161573e-12 L215,1.59161573e-12 Z" id="Combined-Shape" fill="#0B3E6B"></path>
                <path d="M-4.54747351e-13,34 C8.66666667,46.6666667 20.3333333,52.8961039 35,52.6883117 C35.3333083,52.6835895 46.1666416,52.6835895 67.5,52.6883117 L134.5,52.6883117 L239,52.6883117 C255.568542,52.6883117 269,66.1197692 269,82.6883117 L269,315 C269,331.568542 255.568542,345 239,345 L20,345 C8.954305,345 -4.53394643e-13,336.045695 -4.54747351e-13,325 L-4.54747351e-13,34 L-4.54747351e-13,34 Z" id="Rectangle" fill="#2490EF"></path>
            </g>
        </g>
    </g>
</svg>